<?xml version="1.0" standalone="no"?>
<!DOCTYPE svg PUBLIC "-//W3C//DTD SVG 20010904//EN"
 "http://www.w3.org/TR/2001/REC-SVG-20010904/DTD/svg10.dtd">
<svg version="1.0" xmlns="http://www.w3.org/2000/svg"
 width="16.000000pt" height="16.000000pt" viewBox="0 0 16.000000 16.000000"
 preserveAspectRatio="xMidYMid meet">
<metadata>
Created by potrace 1.11, written by Peter Selinger 2001-2013
</metadata>
<g transform="translate(0.000000,16.000000) scale(0.003200,-0.003200)"
fill="#000000" stroke="none">
<path d="M2140 4903 c-451 -71 -863 -257 -1200 -539 -351 -294 -610 -674 -753
-1104 -86 -258 -121 -477 -121 -765 -1 -283 34 -503 119 -760 119 -363 301
-659 574 -938 572 -585 1371 -840 2174 -696 932 167 1691 878 1928 1805 21 85
39 166 39 179 l0 25 -298 0 -297 0 -24 -92 c-125 -496 -485 -939 -952 -1173
-187 -94 -405 -160 -612 -186 -140 -17 -443 -6 -571 20 -375 77 -698 251 -963
517 -273 274 -442 608 -515 1014 -17 100 -18 469 0 570 94 532 385 978 823
1263 179 117 414 214 616 256 l88 18 3 296 c3 328 8 301 -58 290z"/>
<path d="M2850 4605 l0 -295 28 -6 c353 -77 662 -246 918 -499 272 -268 435
-567 517 -948 l22 -102 293 -3 c244 -2 292 0 292 12 0 41 -46 275 -75 380
-224 816 -880 1469 -1700 1695 -95 26 -259 61 -286 61 -5 0 -9 -129 -9 -295z"/>
<path d="M2273 3930 c-445 -47 -744 -243 -854 -560 -31 -88 -38 -278 -15 -371
54 -216 212 -399 441 -509 138 -67 266 -107 591 -184 469 -112 578 -159 637
-271 16 -30 21 -58 21 -115 0 -66 -4 -82 -34 -138 -56 -106 -155 -178 -295
-217 -94 -26 -321 -32 -426 -11 -235 47 -392 196 -454 431 -10 39 -21 73 -24
77 -3 4 -136 -5 -296 -20 l-290 -27 3 -30 c2 -16 14 -73 27 -125 95 -384 339
-632 725 -739 189 -53 541 -71 775 -42 458 58 749 264 866 611 71 214 41 483
-76 666 -71 111 -199 220 -342 292 -95 49 -300 115 -509 166 -366 90 -465 116
-542 146 -163 63 -224 125 -230 234 -2 49 2 68 20 101 64 109 244 175 476 175
314 0 467 -92 533 -320 l23 -82 91 6 c49 3 178 9 285 12 107 4 202 8 210 9 34
5 -3 212 -60 334 -127 270 -386 436 -766 491 -104 15 -408 21 -511 10z"/>
</g>
</svg>
